HIERARCHY
ROOT Hips
{
  OFFSET 265.287 66.7526 -254.649
  CHANNELS 6 Xposition Yposition Zposition Zrotation Xrotation Yrotation
  JOINT LeftUpLeg
  {
    OFFSET 8.64259 1.95398 -2.38835
    CHANNELS 3 Zrotation Xrotation Yrotation
    JOINT LeftLeg
    {
      OFFSET 43.7702 0 0
      CHANNELS 3 Zrotation Xrotation Yrotation
      JOINT LeftFoot
      {
        OFFSET 40.6238 0 0
        CHANNELS 3 Zrotation Xrotation Yrotation
        JOINT LeftToeBase
        {
          OFFSET 12.7242 0 0
          CHANNELS 3 Zrotation Xrotation Yrotation
          End Site
          {
            OFFSET 0 0 0
          }
        }
      }
    }
  }
  JOINT RightUpLeg
  {
    OFFSET -8.2249 1.95398 -2.59336
    CHANNELS 3 Zrotation Xrotation Yrotation
    JOINT RightLeg
    {
      OFFSET 43.5653 0 0
      CHANNELS 3 Zrotation Xrotation Yrotation
      JOINT RightFoot
      {
        OFFSET 40.6238 0 0
        CHANNELS 3 Zrotation Xrotation Yrotation
        JOINT RightToeBase
        {
          OFFSET 12.7242 0 0
          CHANNELS 3 Zrotation Xrotation Yrotation
          End Site
          {
            OFFSET 0 0 0
          }
        }
      }
    }
  }
  JOINT Spine
  {
    OFFSET 0.165834 0.87714 6.61349
    CHANNELS 3 Zrotation Xrotation Yrotation
    JOINT Spine1
    {
      OFFSET 7.38963 1.71661e-005 0
      CHANNELS 3 Zrotation Xrotation Yrotation
      JOINT Spine2
      {
        OFFSET 11.9445 1.14441e-005 0
        CHANNELS 3 Zrotation Xrotation Yrotation
        JOINT Spine3
        {
          OFFSET 14.7254 4.19617e-005 0
          CHANNELS 3 Zrotation Xrotation Yrotation
          JOINT Spine4
          {
            OFFSET 10.9679 0 0
            CHANNELS 3 Zrotation Xrotation Yrotation
            JOINT RightShoulder
            {
              OFFSET 2.46616 -1.6653 3.69651
              CHANNELS 3 Zrotation Xrotation Yrotation
              JOINT RightArm
              {
                OFFSET 13.0012 0 0
                CHANNELS 3 Zrotation Xrotation Yrotation
                JOINT RightForeArm
                {
                  OFFSET 28.7848 1.52588e-005 0
                  CHANNELS 3 Zrotation Xrotation Yrotation
                  JOINT RightHand
                  {
                    OFFSET 26.5688 1.52588e-005 0
                    CHANNELS 3 Zrotation Xrotation Yrotation
                    End Site
                    {
                      OFFSET 0 0 0
                    }
                  }
                }
              }
            }
            JOINT LeftShoulder
            {
              OFFSET 2.38034 -1.29275 -3.7523
              CHANNELS 3 Zrotation Xrotation Yrotation
              JOINT LeftArm
              {
                OFFSET 16.3182 6.10351e-005 0
                CHANNELS 3 Zrotation Xrotation Yrotation
                JOINT LeftForeArm
                {
                  OFFSET 27.0901 0 0
                  CHANNELS 3 Zrotation Xrotation Yrotation
                  JOINT LeftHand
                  {
                    OFFSET 24.5451 1.52588e-005 0
                    CHANNELS 3 Zrotation Xrotation Yrotation
                    End Site
                    {
                      OFFSET 0 0 0
                    }
                  }
                }
              }
            }
            JOINT Neck
            {
              OFFSET 5.0226 -0.0266342 0
              CHANNELS 3 Zrotation Xrotation Yrotation
              JOINT Head
              {
                OFFSET 6.69364 2.86102e-005 0
                CHANNELS 3 Zrotation Xrotation Yrotation
                End Site
                {
                  OFFSET 0 0 0
                }
              }
            }
          }
        }
      }
    }
  }
}
MOTION
Frames:	7
Frame Time:	0.0416667
15.1139 80.5958 21.8048 -124.969 59.3317 -72.3717 179.419 28.1023 97.7144 -67.1753 16.1432 4.11495 53.4092 -0.51918 6.35445 58.4745 -7.7241 8.67236 -179.575 36.1586 93.3123 -72.2596 -10.9966 -3.4186 58.7929 2.00702 8.77076 30.6078 -0.115757 -1.5191 -1.02278 10.137 -89.254 6.6089 -1.72544 1.53407 -5.0619 -1.65625 1.60853 -27.6029 -2.10668 0.944504 -7.59029 -2.10668 0.944514 101.823 -46.9459 -82.7179 18.5415 -12.3165 -2.09438 1.34099 -8.8924 -22.2455 -7.62485 -0.196053 -2.33725 -87.3661 -51.4081 82.6801 6.10412 3.26287 -24.8444 5.36851 4.74101 -23.9297 13.7498 -0.349039 -6.19499 -0.25479 -15.3414 7.65367 2.26794 -16.9096 -14.9792 
9.41468 81.103 12.0312 -115.497 61.3945 -80.5816 -179.172 28.1166 96.644 -46.1552 24.7292 5.24156 50.7805 -2.76796 -1.65051 65.6642 -8.38084 13.0459 176.584 36.6811 93.7352 -77.747 -12.8667 -2.18481 59.0926 -0.402914 1.13962 38.3327 -1.56262 5.55093 -0.992312 9.89261 -89.4293 7.10283 -1.7365 1.20879 -4.56752 -1.68162 1.28405 -27.1111 -2.01952 0.630884 -7.09843 -2.01951 0.630877 102.008 -47.6893 -82.4169 21.0783 -11.7373 -2.64547 -2.8559 -19.5118 -23.7857 -9.05583 -0.253983 -2.00975 -87.0728 -50.1853 82.9173 5.27415 4.78022 -24.4198 3.89919 -0.166569 -29.4712 16.943 -0.446611 -6.45846 2.2052 -15.4419 6.66118 3.14885 -17.0663 -14.9341 
3.41935 79.9978 2.82911 -123.784 69.6358 -76.0329 -176.584 20.814 93.7365 -52.8137 19.9735 3.73219 61.4953 2.2848 7.74627 59.8037 -7.50289 11.5952 -179.113 39.9688 87.8673 -88.3238 -14.4405 -3.92862 48.4932 5.99462 9.93756 35.0055 -1.39572 9.55851 -0.893971 10.2673 -88.8712 6.34338 -1.30766 2.26234 -5.329 -1.20685 2.31765 -27.8587 -1.92702 1.76493 -7.84604 -1.92701 1.76493 103.001 -51.0846 -80.8808 23.7736 -14.1097 -1.62534 -1.42073 -8.55136 -31.3813 -8.25996 -0.19523 -2.91562 -87.2269 -50.1265 82.6759 4.57377 0.715109 -28.2189 4.17509 -1.49337 -32.1407 15.3424 -0.422922 -6.5018 4.45513 -13.4308 3.7825 4.28019 -14.6222 -12.0378 
-0.267864 80.2036 -5.71337 -114.286 73.2594 -85.9915 -175.209 16.5553 92.0499 -52.0699 19.7096 3.04213 67.66 5.9621 11.736 62.2929 -7.73993 13.1454 178.336 49.718 85.8656 -87.3498 -10.1117 -3.3757 57.7729 1.57235 10.9986 44.3041 -2.04696 7.55147 -1.25715 10.1293 -88.9963 6.62632 -2.0834 2.05263 -5.04485 -1.99106 2.1423 -27.5862 -2.60391 1.33152 -7.5735 -2.60389 1.33152 102.07 -51.8505 -82.3101 29.6039 -12.1417 1.01304 -1.77509 -4.31117 -36.3181 -4.57455 -0.0552265 -4.20317 -87.9285 -50.1253 81.621 4.21166 -2.86879 -40.1516 8.3287 0.488691 -41.2305 15.4405 -0.575592 -7.46016 10.0606 -11.7008 3.80307 4.3881 -12.989 -10.9867 
-2.32583 83.0759 -17.7396 -97.0274 78.5367 -100.788 -174.833 5.31542 93.9017 -39.7001 18.8194 4.7398 65.8905 4.24918 6.07262 66.2163 -7.26753 18.4152 166.819 47.8451 91.9743 -73.4724 -8.04207 0.7842 58.7521 1.37595 7.58834 53.8852 -2.69199 8.56244 -1.02581 9.66889 -89.835 7.53999 -1.97658 0.424505 -4.12957 -1.95598 0.511114 -26.6768 -2.01275 -0.189401 -6.66413 -2.01275 -0.189403 98.8161 -49.2517 -87.4347 32.9786 -13.0989 3.09455 4.1355 3.86116 -31.6016 -6.25809 -0.0967784 -3.6836 -88.1548 -47.7035 80.8315 -0.1995 1.42572 -39.5619 14.8108 3.14198 -49.8078 16.9949 -0.497439 -6.75419 12.4033 -10.2653 9.07673 3.15584 -12.7765 -10.4648 
-2.47755 84.1907 -31.9603 -40.0217 86.081 -157.084 179.883 7.63637 92.5622 -55.4023 13.5152 4.97736 48.1303 -3.02957 -0.0342743 63.1034 -8.10141 11.6721 166.057 36.6592 93.8011 -67.7121 -9.73645 3.29997 61.9152 -0.307017 3.48732 43.0411 -2.00397 5.55132 -0.338873 9.59113 -90.1917 7.69019 -0.759806 -0.339785 -3.98059 -0.774037 -0.306004 -26.5165 -0.622576 -0.552433 -6.50389 -0.622572 -0.552432 98.0444 -51.7811 -88.4514 26.8837 -12.7016 -4.89582 10.166 15.0602 -29.5697 -12.2839 -0.156215 -3.9242 -86.4237 -47.5776 83.4878 -5.00559 4.26339 -24.6751 15.4481 8.63565 -39.4218 15.6922 -0.473342 -6.72789 16.9142 -8.79 1.37351 -0.897381 -8.95906 -3.19774 
-2.08892 83.5959 -44.3149 56.2754 77.4119 111.618 176.623 26.6657 92.6235 -90.3689 15.59 2.36959 53.7921 0.896365 16.7299 51.8691 -6.64994 5.17817 173.54 27.6022 97.0122 -66.9294 -13.5613 1.04892 65.6772 -0.419254 8.96381 44.1454 -2.084 5.50042 0.483249 10.1586 -90.764 6.56038 0.641003 -1.53327 -5.11129 0.572908 -1.56 -27.6425 1.07213 -1.26982 -7.62988 1.07214 -1.26982 98.4211 -51.1856 -87.9293 21.8839 -6.13264 -25.6502 7.49041 10.6106 -39.0994 -14.4409 -0.24306 -3.35226 -85.1509 -46.3875 85.301 -8.33649 7.16393 -0.256535 8.62117 16.7102 -20.0455 14.4077 0.31075 -1.76818 23.6265 -5.34505 -3.2493 -3.51017 -3.98228 2.94235 
